<svg width="108" height="28" viewBox="0 0 108 28" fill="none" xmlns="http://www.w3.org/2000/svg">
<path d="M4.0945 12L9.2145 0.799999H10.3825L15.5025 12H14.2545L9.5505 1.488H10.0305L5.3265 12H4.0945ZM6.1105 9.008L6.4625 8.048H12.9745L13.3265 9.008H6.1105ZM17.3553 12V0.799999H18.5393V10.976H24.8113V12H17.3553ZM26.7771 12V0.799999H27.9611V10.976H34.2331V12H26.7771ZM41.5865 12.096C40.9572 12.096 40.3652 11.9573 39.8105 11.68C39.2665 11.4027 38.8292 11.008 38.4985 10.496L39.1865 9.696C39.4958 10.144 39.8532 10.4853 40.2585 10.72C40.6638 10.9547 41.1118 11.072 41.6025 11.072C42.9892 11.072 43.6825 10.2507 43.6825 8.608V1.824H39.5865V0.799999H44.8505V8.56C44.8505 9.744 44.5732 10.6293 44.0185 11.216C43.4745 11.8027 42.6638 12.096 41.5865 12.096ZM53.2981 12.096C52.4555 12.096 51.6715 11.9573 50.9461 11.68C50.2315 11.392 49.6075 10.992 49.0741 10.48C48.5515 9.95733 48.1408 9.35467 47.8421 8.672C47.5541 7.97867 47.4101 7.22133 47.4101 6.4C47.4101 5.57867 47.5541 4.82667 47.8421 4.144C48.1408 3.45067 48.5515 2.848 49.0741 2.336C49.6075 1.81333 50.2315 1.41333 50.9461 1.136C51.6608 0.848 52.4448 0.704 53.2981 0.704C54.1408 0.704 54.9195 0.848 55.6341 1.136C56.3488 1.41333 56.9675 1.808 57.4901 2.32C58.0235 2.832 58.4341 3.43467 58.7221 4.128C59.0208 4.82133 59.1701 5.57867 59.1701 6.4C59.1701 7.22133 59.0208 7.97867 58.7221 8.672C58.4341 9.36533 58.0235 9.968 57.4901 10.48C56.9675 10.992 56.3488 11.392 55.6341 11.68C54.9195 11.9573 54.1408 12.096 53.2981 12.096ZM53.2981 11.04C53.9701 11.04 54.5888 10.928 55.1541 10.704C55.7301 10.4693 56.2261 10.144 56.6421 9.728C57.0688 9.30133 57.3995 8.81067 57.6341 8.256C57.8688 7.69067 57.9861 7.072 57.9861 6.4C57.9861 5.728 57.8688 5.11467 57.6341 4.56C57.3995 3.99467 57.0688 3.504 56.6421 3.088C56.2261 2.66133 55.7301 2.336 55.1541 2.112C54.5888 1.87733 53.9701 1.76 53.2981 1.76C52.6261 1.76 52.0021 1.87733 51.4261 2.112C50.8501 2.336 50.3488 2.66133 49.9221 3.088C49.5061 3.504 49.1755 3.99467 48.9301 4.56C48.6955 5.11467 48.5781 5.728 48.5781 6.4C48.5781 7.06133 48.6955 7.67467 48.9301 8.24C49.1755 8.80533 49.5061 9.30133 49.9221 9.728C50.3488 10.144 50.8501 10.4693 51.4261 10.704C52.0021 10.928 52.6261 11.04 53.2981 11.04ZM61.824 12V0.799999H66.656C67.904 0.799999 68.8693 1.05067 69.552 1.552C70.2453 2.05333 70.592 2.76267 70.592 3.68C70.592 4.288 70.448 4.8 70.16 5.216C69.8827 5.632 69.4987 5.94667 69.008 6.16C68.528 6.37333 68 6.48 67.424 6.48L67.696 6.096C68.4107 6.096 69.024 6.208 69.536 6.432C70.0587 6.64533 70.464 6.97067 70.752 7.408C71.04 7.83467 71.184 8.368 71.184 9.008C71.184 9.95733 70.832 10.6933 70.128 11.216C69.4347 11.7387 68.384 12 66.976 12H61.824ZM63.008 11.024H66.96C67.9413 11.024 68.6933 10.8587 69.216 10.528C69.7387 10.1867 70 9.648 70 8.912C70 8.18667 69.7387 7.65867 69.216 7.328C68.6933 6.98667 67.9413 6.816 66.96 6.816H62.88V5.84H66.576C67.472 5.84 68.1653 5.66933 68.656 5.328C69.1573 4.98667 69.408 4.48 69.408 3.808C69.408 3.12533 69.1573 2.61867 68.656 2.288C68.1653 1.94667 67.472 1.776 66.576 1.776H63.008V11.024ZM76.9745 12.096C76.1425 12.096 75.3425 11.9627 74.5745 11.696C73.8172 11.4187 73.2305 11.0667 72.8145 10.64L73.2785 9.728C73.6732 10.112 74.2012 10.4373 74.8625 10.704C75.5345 10.96 76.2385 11.088 76.9745 11.088C77.6785 11.088 78.2492 11.0027 78.6865 10.832C79.1345 10.6507 79.4598 10.4107 79.6625 10.112C79.8758 9.81333 79.9825 9.48267 79.9825 9.12C79.9825 8.68267 79.8545 8.33067 79.5985 8.064C79.3532 7.79733 79.0278 7.58933 78.6225 7.44C78.2172 7.28 77.7692 7.14133 77.2785 7.024C76.7878 6.90667 76.2972 6.784 75.8065 6.656C75.3158 6.51733 74.8625 6.336 74.4465 6.112C74.0412 5.888 73.7105 5.59467 73.4545 5.232C73.2092 4.85867 73.0865 4.37333 73.0865 3.776C73.0865 3.22133 73.2305 2.71467 73.5185 2.256C73.8172 1.78667 74.2705 1.41333 74.8785 1.136C75.4865 0.848 76.2652 0.704 77.2145 0.704C77.8438 0.704 78.4678 0.794666 79.0865 0.976C79.7052 1.14667 80.2385 1.38667 80.6865 1.696L80.2865 2.64C79.8065 2.32 79.2945 2.08533 78.7505 1.936C78.2172 1.78667 77.6998 1.712 77.1985 1.712C76.5265 1.712 75.9718 1.80267 75.5345 1.984C75.0972 2.16533 74.7718 2.41067 74.5585 2.72C74.3558 3.01867 74.2545 3.36 74.2545 3.744C74.2545 4.18133 74.3772 4.53333 74.6225 4.8C74.8785 5.06667 75.2092 5.27467 75.6145 5.424C76.0305 5.57333 76.4838 5.70667 76.9745 5.824C77.4652 5.94133 77.9505 6.06933 78.4305 6.208C78.9212 6.34667 79.3692 6.528 79.7745 6.752C80.1905 6.96533 80.5212 7.25333 80.7665 7.616C81.0225 7.97867 81.1505 8.45333 81.1505 9.04C81.1505 9.584 81.0012 10.0907 80.7025 10.56C80.4038 11.0187 79.9452 11.392 79.3265 11.68C78.7185 11.9573 77.9345 12.096 76.9745 12.096ZM87.9178 12V0.799999H89.1018V12H87.9178ZM92.7459 12V0.799999H93.7219L101.45 10.528H100.938V0.799999H102.106V12H101.13L93.4179 2.272H93.9299V12H92.7459ZM4.53023 27.072C3.89823 27.072 3.31023 26.968 2.76623 26.76C2.23023 26.544 1.76223 26.244 1.36223 25.86C0.970234 25.468 0.662234 25.016 0.438234 24.504C0.222234 23.984 0.114234 23.416 0.114234 22.8C0.114234 22.184 0.222234 21.62 0.438234 21.108C0.662234 20.588 0.970234 20.136 1.36223 19.752C1.76223 19.36 2.23023 19.06 2.76623 18.852C3.30223 18.636 3.89023 18.528 4.53023 18.528C5.16223 18.528 5.74623 18.636 6.28223 18.852C6.81823 19.06 7.28223 19.356 7.67423 19.74C8.07423 20.124 8.38224 20.576 8.59824 21.096C8.82224 21.616 8.93424 22.184 8.93424 22.8C8.93424 23.416 8.82224 23.984 8.59824 24.504C8.38224 25.024 8.07423 25.476 7.67423 25.86C7.28223 26.244 6.81823 26.544 6.28223 26.76C5.74623 26.968 5.16223 27.072 4.53023 27.072ZM4.53023 26.28C5.03423 26.28 5.49823 26.196 5.92223 26.028C6.35423 25.852 6.72623 25.608 7.03823 25.296C7.35823 24.976 7.60623 24.608 7.78223 24.192C7.95824 23.768 8.04624 23.304 8.04624 22.8C8.04624 22.296 7.95824 21.836 7.78223 21.42C7.60623 20.996 7.35823 20.628 7.03823 20.316C6.72623 19.996 6.35423 19.752 5.92223 19.584C5.49823 19.408 5.03423 19.32 4.53023 19.32C4.02623 19.32 3.55823 19.408 3.12623 19.584C2.69423 19.752 2.31823 19.996 1.99823 20.316C1.68623 20.628 1.43823 20.996 1.25423 21.42C1.07823 21.836 0.990234 22.296 0.990234 22.8C0.990234 23.296 1.07823 23.756 1.25423 24.18C1.43823 24.604 1.68623 24.976 1.99823 25.296C2.31823 25.608 2.69423 25.852 3.12623 26.028C3.55823 26.196 4.02623 26.28 4.53023 26.28ZM10.9246 27V18.6H11.6566L17.4526 25.896H17.0686V18.6H17.9446V27H17.2126L11.4286 19.704H11.8126V27H10.9246ZM21.4784 22.356H25.9184V23.112H21.4784V22.356ZM21.5744 26.232H26.6264V27H20.6864V18.6H26.4464V19.368H21.5744V26.232ZM31.8543 27V18.6H32.5863L36.4263 25.152H36.0423L39.8463 18.6H40.5783V27H39.7263V19.932H39.9303L36.4263 25.932H36.0063L32.4783 19.932H32.7063V27H31.8543ZM44.1073 22.356H48.5473V23.112H44.1073V22.356ZM44.2033 26.232H49.2553V27H43.3153V18.6H49.0753V19.368H44.2033V26.232ZM53.6586 27.072C53.0346 27.072 52.4346 26.972 51.8586 26.772C51.2906 26.564 50.8506 26.3 50.5386 25.98L50.8866 25.296C51.1826 25.584 51.5786 25.828 52.0746 26.028C52.5786 26.22 53.1066 26.316 53.6586 26.316C54.1866 26.316 54.6146 26.252 54.9426 26.124C55.2786 25.988 55.5226 25.808 55.6746 25.584C55.8346 25.36 55.9146 25.112 55.9146 24.84C55.9146 24.512 55.8186 24.248 55.6266 24.048C55.4426 23.848 55.1986 23.692 54.8946 23.58C54.5906 23.46 54.2546 23.356 53.8866 23.268C53.5186 23.18 53.1506 23.088 52.7826 22.992C52.4146 22.888 52.0746 22.752 51.7626 22.584C51.4586 22.416 51.2106 22.196 51.0186 21.924C50.8346 21.644 50.7426 21.28 50.7426 20.832C50.7426 20.416 50.8506 20.036 51.0666 19.692C51.2906 19.34 51.6306 19.06 52.0866 18.852C52.5426 18.636 53.1266 18.528 53.8386 18.528C54.3106 18.528 54.7786 18.596 55.2426 18.732C55.7066 18.86 56.1066 19.04 56.4426 19.272L56.1426 19.98C55.7826 19.74 55.3986 19.564 54.9906 19.452C54.5906 19.34 54.2026 19.284 53.8266 19.284C53.3226 19.284 52.9066 19.352 52.5786 19.488C52.2506 19.624 52.0066 19.808 51.8466 20.04C51.6946 20.264 51.6186 20.52 51.6186 20.808C51.6186 21.136 51.7106 21.4 51.8946 21.6C52.0866 21.8 52.3346 21.956 52.6386 22.068C52.9506 22.18 53.2906 22.28 53.6586 22.368C54.0266 22.456 54.3906 22.552 54.7506 22.656C55.1186 22.76 55.4546 22.896 55.7586 23.064C56.0706 23.224 56.3186 23.44 56.5026 23.712C56.6946 23.984 56.7906 24.34 56.7906 24.78C56.7906 25.188 56.6786 25.568 56.4546 25.92C56.2306 26.264 55.8866 26.544 55.4226 26.76C54.9666 26.968 54.3786 27.072 53.6586 27.072ZM61.0414 27.072C60.4174 27.072 59.8174 26.972 59.2414 26.772C58.6734 26.564 58.2334 26.3 57.9214 25.98L58.2694 25.296C58.5654 25.584 58.9614 25.828 59.4574 26.028C59.9614 26.22 60.4894 26.316 61.0414 26.316C61.5694 26.316 61.9974 26.252 62.3254 26.124C62.6614 25.988 62.9054 25.808 63.0574 25.584C63.2174 25.36 63.2974 25.112 63.2974 24.84C63.2974 24.512 63.2014 24.248 63.0094 24.048C62.8254 23.848 62.5814 23.692 62.2774 23.58C61.9734 23.46 61.6374 23.356 61.2694 23.268C60.9014 23.18 60.5334 23.088 60.1654 22.992C59.7974 22.888 59.4574 22.752 59.1454 22.584C58.8414 22.416 58.5934 22.196 58.4014 21.924C58.2174 21.644 58.1254 21.28 58.1254 20.832C58.1254 20.416 58.2334 20.036 58.4494 19.692C58.6734 19.34 59.0134 19.06 59.4694 18.852C59.9254 18.636 60.5094 18.528 61.2214 18.528C61.6934 18.528 62.1614 18.596 62.6254 18.732C63.0894 18.86 63.4894 19.04 63.8254 19.272L63.5254 19.98C63.1654 19.74 62.7814 19.564 62.3734 19.452C61.9734 19.34 61.5854 19.284 61.2094 19.284C60.7054 19.284 60.2894 19.352 59.9614 19.488C59.6334 19.624 59.3894 19.808 59.2294 20.04C59.0774 20.264 59.0014 20.52 59.0014 20.808C59.0014 21.136 59.0934 21.4 59.2774 21.6C59.4694 21.8 59.7174 21.956 60.0214 22.068C60.3334 22.18 60.6734 22.28 61.0414 22.368C61.4094 22.456 61.7734 22.552 62.1334 22.656C62.5014 22.76 62.8374 22.896 63.1414 23.064C63.4534 23.224 63.7014 23.44 63.8854 23.712C64.0774 23.984 64.1734 24.34 64.1734 24.78C64.1734 25.188 64.0614 25.568 63.8374 25.92C63.6134 26.264 63.2694 26.544 62.8054 26.76C62.3494 26.968 61.7614 27.072 61.0414 27.072ZM66.9002 22.356H71.3402V23.112H66.9002V22.356ZM66.9962 26.232H72.0482V27H66.1082V18.6H71.8682V19.368H66.9962V26.232ZM74.1356 27V18.6H74.8676L80.6636 25.896H80.2796V18.6H81.1556V27H80.4236L74.6396 19.704H75.0236V27H74.1356ZM87.5813 27.072C86.9413 27.072 86.3493 26.968 85.8053 26.76C85.2693 26.544 84.8013 26.244 84.4013 25.86C84.0093 25.476 83.7013 25.024 83.4773 24.504C83.2613 23.984 83.1533 23.416 83.1533 22.8C83.1533 22.184 83.2613 21.616 83.4773 21.096C83.7013 20.576 84.0133 20.124 84.4133 19.74C84.8133 19.356 85.2813 19.06 85.8173 18.852C86.3613 18.636 86.9533 18.528 87.5933 18.528C88.2333 18.528 88.8173 18.628 89.3453 18.828C89.8813 19.028 90.3373 19.332 90.7133 19.74L90.1613 20.304C89.8093 19.952 89.4213 19.7 88.9973 19.548C88.5733 19.396 88.1173 19.32 87.6293 19.32C87.1093 19.32 86.6293 19.408 86.1893 19.584C85.7573 19.752 85.3773 19.996 85.0493 20.316C84.7293 20.628 84.4773 20.996 84.2933 21.42C84.1173 21.836 84.0293 22.296 84.0293 22.8C84.0293 23.296 84.1173 23.756 84.2933 24.18C84.4773 24.604 84.7293 24.976 85.0493 25.296C85.3773 25.608 85.7573 25.852 86.1893 26.028C86.6293 26.196 87.1053 26.28 87.6173 26.28C88.0973 26.28 88.5493 26.208 88.9733 26.064C89.4053 25.92 89.8013 25.676 90.1613 25.332L90.6653 26.004C90.2653 26.356 89.7973 26.624 89.2613 26.808C88.7253 26.984 88.1653 27.072 87.5813 27.072ZM89.8133 25.896V22.8H90.6653V26.004L89.8133 25.896ZM93.9705 22.356H98.4105V23.112H93.9705V22.356ZM94.0665 26.232H99.1185V27H93.1785V18.6H98.9385V19.368H94.0665V26.232ZM101.206 27V18.6H104.35C105.062 18.6 105.674 18.716 106.186 18.948C106.698 19.172 107.09 19.5 107.362 19.932C107.642 20.356 107.782 20.872 107.782 21.48C107.782 22.072 107.642 22.584 107.362 23.016C107.09 23.44 106.698 23.768 106.186 24C105.674 24.224 105.062 24.336 104.35 24.336H101.698L102.094 23.928V27H101.206ZM106.942 27L104.782 23.952H105.742L107.914 27H106.942ZM102.094 24L101.698 23.58H104.326C105.166 23.58 105.802 23.396 106.234 23.028C106.674 22.66 106.894 22.144 106.894 21.48C106.894 20.808 106.674 20.288 106.234 19.92C105.802 19.552 105.166 19.368 104.326 19.368H101.698L102.094 18.948V24Z" fill="white"/>
</svg>
